<?xml version="1.0" encoding="UTF-8" standalone="no"?>
<!-- Created with Inkscape (http://www.inkscape.org/) -->

<svg
   width="149.55421mm"
   height="149.60403mm"
   viewBox="0 0 149.55421 149.60404"
   version="1.1"
   id="svg5"
   inkscape:version="1.1.2 (0a00cf5339, 2022-02-04)"
   sodipodi:docname="s3-wasabi.svg"
   xmlns:inkscape="http://www.inkscape.org/namespaces/inkscape"
   xmlns:sodipodi="http://sodipodi.sourceforge.net/DTD/sodipodi-0.dtd"
   xmlns="http://www.w3.org/2000/svg"
   xmlns:svg="http://www.w3.org/2000/svg">
  <sodipodi:namedview
     id="namedview7"
     pagecolor="#ffffff"
     bordercolor="#666666"
     borderopacity="1.0"
     inkscape:pageshadow="2"
     inkscape:pageopacity="0.0"
     inkscape:pagecheckerboard="0"
     inkscape:document-units="mm"
     showgrid="false"
     inkscape:zoom="0.74742565"
     inkscape:cx="434.1569"
     inkscape:cy="12.041332"
     inkscape:window-width="1920"
     inkscape:window-height="1011"
     inkscape:window-x="0"
     inkscape:window-y="32"
     inkscape:window-maximized="1"
     inkscape:current-layer="layer1" />
  <defs
     id="defs2" />
  <g
     inkscape:label="Layer 1"
     inkscape:groupmode="layer"
     id="layer1"
     transform="translate(9.9391206,-201.97995)">
    <path
       fill="#feffff"
       opacity="1"
       stroke="none"
       d="m 139.74214,103.74435 c 0,-18.873604 0,-37.614919 0,-56.356236 50.4472,-4e-6 100.8944,-4e-6 151.34162,-8e-6 2e-5,50.711761 2e-5,101.423524 3e-5,152.135314 -50.44715,3e-5 -100.89432,3e-5 -151.34157,6e-5 -8e-5,-31.88226 -8e-5,-63.76455 -8e-5,-95.77913 m 1.00805,15.89775 c 0.17909,4.61119 0.0223,9.26473 0.59734,13.82601 2.11659,16.78897 9.2812,31.24791 21.34705,43.05442 17.278,16.90664 38.14013,23.94736 62.14119,21.14945 17.92931,-2.0901 33.17379,-9.92691 45.32143,-23.22061 17.53184,-19.18587 23.62184,-41.80484 18.27574,-67.18831 C 280.85667,71.290647 246.19636,44.009989 205.49333,49.329158 187.52478,51.67733 172.35824,59.716647 160.1479,73.102584 148.2032,86.197316 141.75136,101.67336 140.75019,119.6421 Z"
       id="path824"
       style="stroke-width:0.264583" />
    <path
       fill="#01ce3f"
       opacity="1"
       stroke="none"
       d="m -9.9391206,272.83385 c 0.99833,-17.84517 7.45017,-33.32121 19.39487,-46.41594 12.2103396,-13.38594 27.3768796,-21.42526 45.3454296,-23.77343 40.70303,-5.31917 75.363341,21.96149 82.939611,57.9339 5.3461,25.38347 -0.7439,48.00244 -18.27574,67.18831 -12.14764,13.2937 -27.392121,21.13051 -45.321431,23.22061 -24.00106,2.79792 -44.86319,-4.24281 -62.14119,-21.14944 -12.06584957,-11.80652 -19.2304596,-26.26546 -21.3470496,-43.05443 -0.57504,-4.56128 -0.41825,-9.21482 -0.5945,-13.94958 m 35.2523796,29.85311 c -7.09726,-6.37166 -14.19452,-12.74335 -21.5937796,-19.38614 0.26497,1.69705 0.41955,2.99811 0.67534,4.27896 4.16886,20.87505 15.9548096,35.83022 35.0604196,45.10149 0.79008,0.3834 1.27312,0.28249 1.93189,-0.34248 14.92214,-14.15682 29.87799,-28.27815 44.79783,-42.43741 0.40697,-0.38622 0.68376,-1.11701 0.68744,-1.68928 0.046,-7.1404 0.0312,-14.2812 0.0261,-21.4219 -2.1e-4,-0.31079 -0.0576,-0.62153 -0.10223,-1.07256 -16.78113,15.7848 -33.41833,31.4342 -50.11288,47.13755 -3.82302,-3.41937 -7.52633,-6.73167 -11.37018,-10.16823 m 26.05897,-46.40762 c -2.46035,2.33479 -4.94486,4.64512 -7.35727,7.02843 -0.40247,0.39761 -0.69147,1.11124 -0.69504,1.68096 -0.0459,7.31802 -0.0314,14.63644 -0.0263,21.95476 2.2e-4,0.3058 0.0586,0.61159 0.10677,1.08214 16.77868,-15.83239 33.40037,-31.51666 50.11052,-47.28439 10.674481,9.67392 21.292261,19.29645 32.158361,29.14403 -0.13504,-0.98703 -0.2028,-1.63214 -0.3135,-2.2698 -3.73434,-21.51158 -15.53209,-36.94446 -35.066391,-46.56767 -0.91064,-0.44861 -1.46231,-0.31178 -2.15383,0.36083 -2.68419,2.61079 -5.41937,5.1692 -8.13767,7.74488 -9.49692,8.99861 -18.99471,17.9963 -28.62561,27.12583 m -33.53064,-3.01129 c -2.23172,-1.98927 -4.46344,-3.97854 -6.74033,-6.00807 -0.16732,0.27193 -0.31339,0.48589 -0.43622,0.71243 -2.8281396,5.21573 -4.7728296,10.74928 -6.0210996,16.54397 -0.20032,0.92991 -0.008,1.4902 0.71468,2.13316 7.8951596,7.026 15.7513596,14.09579 23.6215796,21.14984 0.20449,0.1833 0.44782,0.32327 0.70772,0.50811 0.0583,-0.20009 0.10128,-0.27867 0.10132,-0.35728 0.004,-7.713 0.018,-15.42606 -0.024,-23.13882 -0.003,-0.47998 -0.33114,-1.08121 -0.69885,-1.41717 -3.67389,-3.35668 -7.38787,-6.6695 -11.22483,-10.12617 m 99.752161,51.59758 c 0.35224,0.30233 0.70449,0.60465 1.11331,0.95554 0.19823,-0.32346 0.34801,-0.53518 0.46505,-0.76366 2.57946,-5.03506 4.47573,-10.30788 5.65926,-15.8483 0.24079,-1.12728 0.0742,-1.82155 -0.80527,-2.61088 -7.56912,-6.79333 -15.08852,-13.64209 -22.62659,-20.47006 -0.26355,-0.23874 -0.56709,-0.43331 -1.00245,-0.76211 0,7.91575 -0.009,15.58155 0.0259,23.24716 0.002,0.41088 0.2821,0.92677 0.5968,1.21409 5.4625,4.98714 10.95072,9.9461 16.57397,15.03823 m -41.746361,13.45851 c -6.68942,6.33089 -13.37883,12.66179 -20.2186,19.13497 10.59919,1.49491 20.64107,0.43827 30.43264,-3.12914 0.84175,-0.30669 0.85018,-0.81482 0.84914,-1.50442 -0.0118,-7.89178 -0.006,-15.78359 -0.0113,-23.67538 -2e-4,-0.32052 -0.0554,-0.64101 -0.10254,-1.151 -3.70763,3.49371 -7.26227,6.84325 -10.94936,10.32497 m -14.90856,-89.78711 c 4.29406,-4.05217 8.58812,-8.10433 12.93739,-12.2086 -0.28511,-0.15939 -0.35222,-0.22446 -0.42689,-0.23475 -9.89652,-1.36401 -19.56601,-0.44251 -29.0128,2.83769 -0.86634,0.30082 -1.22334,0.65919 -1.21715,1.64749 0.0491,7.84142 0.0264,15.68329 0.0305,23.52502 1.7e-4,0.32079 0.047,0.64155 0.0873,1.15614 5.92582,-5.63256 11.69419,-11.11547 17.60162,-16.72299 m -35.79747,1.51187 c -2.07687,1.95531 -4.15376,3.91062 -6.32562,5.95536 3.67536,3.29028 7.20915,6.45384 10.86533,9.72695 0,-6.52732 0,-12.75242 0,-19.26232 -1.58713,1.24746 -2.99269,2.35221 -4.53971,3.58001 m 75.254541,81.91301 c 0,4.81047 0,9.62094 0,14.43141 0.14937,0.084 0.29876,0.16808 0.44813,0.25212 3.39021,-3.08419 6.78043,-6.16838 10.29275,-9.36366 -3.71338,-3.36276 -7.13364,-6.4601 -10.7409,-9.72679 0,1.59249 0,2.86785 2e-5,4.40692 z"
       id="path826"
       style="stroke-width:0.264583" />
    <path
       fill="#fefffe"
       opacity="1"
       stroke="none"
       d="m 176.07568,149.43377 c 3.77358,3.37443 7.47689,6.68672 11.29992,10.10609 16.69455,-15.70335 33.33174,-31.35274 50.11288,-47.13754 0.0446,0.45103 0.10201,0.76177 0.10223,1.07256 0.005,7.1407 0.0198,14.2815 -0.0261,21.4219 -0.004,0.57227 -0.28048,1.30306 -0.68745,1.68928 -14.91984,14.15926 -29.87568,28.28059 -44.79783,42.43741 -0.65877,0.62497 -1.14181,0.72588 -1.93188,0.34248 -19.10563,-9.27127 -30.89158,-24.22644 -35.06044,-45.10149 -0.25579,-1.28085 -0.41037,-2.58191 -0.67534,-4.27896 7.39926,6.64279 14.49652,13.01447 21.66405,19.44827 z"
       id="path828"
       style="stroke-width:0.264583" />
    <path
       fill="#fefffe"
       opacity="1"
       stroke="none"
       d="m 202.1311,102.89827 c 9.56418,-9.06378 19.06197,-18.061473 28.55889,-27.060089 2.7183,-2.57568 5.45348,-5.134081 8.13767,-7.744872 0.69152,-0.672615 1.24319,-0.809442 2.15383,-0.36083 19.5343,9.623206 31.33205,25.056084 35.0664,46.567671 0.1107,0.63766 0.17846,1.28277 0.3135,2.2698 -10.8661,-9.84758 -21.48388,-19.470115 -32.15836,-29.14403 -16.71015,15.76773 -33.33184,31.452 -50.11052,47.28439 -0.0481,-0.47056 -0.10655,-0.77634 -0.10677,-1.08214 -0.005,-7.31832 -0.0195,-14.63674 0.0263,-21.95476 0.004,-0.56972 0.29257,-1.28335 0.69503,-1.68096 2.41242,-2.38331 4.89693,-4.69364 7.424,-7.09418 z"
       id="path830"
       style="stroke-width:0.264583" />
    <path
       fill="#fefffe"
       opacity="1"
       stroke="none"
       d="m 168.60088,100.01847 c 3.76982,3.39093 7.4838,6.70375 11.15769,10.06043 0.36771,0.33596 0.69624,0.93719 0.69885,1.41717 0.042,7.71276 0.0282,15.42582 0.024,23.13882 -4e-5,0.0786 -0.043,0.15719 -0.10132,0.35728 -0.2599,-0.18484 -0.50323,-0.32481 -0.70772,-0.50811 -7.87022,-7.05405 -15.72642,-14.12384 -23.62158,-21.14984 -0.7225,-0.64296 -0.915,-1.20325 -0.71468,-2.13316 1.24827,-5.79469 3.19296,-11.328246 6.0211,-16.543977 0.12283,-0.226542 0.2689,-0.440495 0.43622,-0.712425 2.27689,2.029531 4.50861,4.018798 6.80747,6.073812 z"
       id="path832"
       style="stroke-width:0.264583" />
    <path
       fill="#fefffe"
       opacity="1"
       stroke="none"
       d="m 268.21558,151.4868 c -5.55294,-5.02861 -11.04116,-9.98758 -16.50366,-14.97471 -0.3147,-0.28732 -0.59491,-0.80322 -0.59679,-1.2141 -0.0353,-7.6656 -0.0259,-15.33141 -0.0259,-23.24715 0.43536,0.32879 0.7389,0.52337 1.00245,0.7621 7.53807,6.82798 15.05747,13.67673 22.62659,20.47006 0.87947,0.78933 1.04606,1.48361 0.80527,2.61088 -1.18353,5.54043 -3.0798,10.81324 -5.65926,15.84831 -0.11704,0.22848 -0.26682,0.44019 -0.46504,0.76366 -0.40883,-0.35089 -0.76108,-0.65321 -1.18364,-1.01905 z"
       id="path834"
       style="stroke-width:0.264583" />
    <path
       fill="#fdfffd"
       opacity="1"
       stroke="none"
       d="m 226.60576,164.94273 c 3.62086,-3.41563 7.1755,-6.76516 10.88314,-10.25887 0.0471,0.50998 0.10233,0.83047 0.10253,1.151 0.005,7.89179 -5.3e-4,15.7836 0.0113,23.67538 0.001,0.6896 -0.007,1.19773 -0.84914,1.50442 -9.79157,3.56741 -19.83345,4.62404 -30.43264,3.12914 6.83977,-6.47318 13.52919,-12.80408 20.28483,-19.20107 z"
       id="path836"
       style="stroke-width:0.264583" />
    <path
       fill="#fefffe"
       opacity="1"
       stroke="none"
       d="m 211.56139,75.284024 c -5.8379,5.545214 -11.60627,11.028119 -17.53209,16.66068 -0.0403,-0.514585 -0.0872,-0.83535 -0.0873,-1.156144 -0.004,-7.841729 0.0186,-15.683595 -0.0305,-23.525017 -0.006,-0.988293 0.35081,-1.346665 1.21715,-1.647485 9.44679,-3.280199 19.11628,-4.201702 29.0128,-2.837692 0.0747,0.01029 0.14178,0.07536 0.42689,0.23475 -4.34927,4.104268 -8.64333,8.156433 -13.00692,12.270908 z"
       id="path838"
       style="stroke-width:0.264583" />
    <path
       fill="#fdfffd"
       opacity="1"
       stroke="none"
       d="m 251.08798,158.51476 c -10e-6,-1.40723 -10e-6,-2.68259 -10e-6,-4.27508 3.60726,3.26669 7.02752,6.36403 10.7409,9.72679 -3.51232,3.19528 -6.90254,6.27947 -10.29274,9.36366 -0.14938,-0.084 -0.29877,-0.16808 -0.44814,-0.25212 0,-4.81047 0,-9.62094 -1e-5,-14.56325 z"
       id="path842"
       style="stroke-width:0.264583" />
  </g>
</svg>
