<svg xmlns="http://www.w3.org/2000/svg" fill="none" viewBox="0 0 16 16" id="Storj--Streamline-Cryptocurrency" height="16" width="16"><desc>Storj Streamline Icon: https://streamlinehq.com</desc><path fill="#2683ff" d="M8 16c4.4183 0 8 -3.5817 8 -8 0 -4.41828 -3.5817 -8 -8 -8C3.58172 0 0 3.58172 0 8c0 4.4183 3.58172 8 8 8Z" stroke-width="0.5"></path><path fill="#ffffff" d="M12.4885 9.4855c0.2098 0.12585 0.3623 0.32855 0.4251 0.565 0.06285 0.23645 0.03105 0.4881 -0.0886 0.7015 -0.257 0.451 -0.841 0.611 -1.3005 0.359 -0.045 -0.0245 -0.084 -0.0535 -0.124 -0.0825l-2.463 1.392c0.006 0.045 0.0095 0.0905 0.01 0.136 0 0.0535 0 0.102 -0.01 0.155 -0.084 0.51 -0.5735 0.859 -1.093 0.7765 -0.519 -0.0825 -0.875 -0.563 -0.791 -1.072l-2.478525 -1.402c-0.038375 0.0275 -0.07791 0.05335 -0.1185 0.0775 -0.04 0.0195 -0.0795 0.0435 -0.124 0.058 -0.23365 0.09365 -0.49474 0.0917 -0.726975 -0.0054 -0.23224 -0.0971 -0.417025 -0.28155 -0.514525 -0.5136 -0.1975 -0.48 0.04 -1.0235 0.5295 -1.2175v-2.804c-0.044945 -0.0145 -0.088065 -0.0341 -0.1285 -0.0585 -0.037085 -0.023 -0.073435 -0.0472 -0.109 -0.0725 -0.134745 -0.0979 -0.24073 -0.2302 -0.30687 -0.38305 -0.06614 -0.1529 -0.090015 -0.3207 -0.06913 -0.48595 0.022135 -0.16565 0.087995 -0.3224 0.190815 -0.4541 0.10282 -0.13175 0.238885 -0.233705 0.394185 -0.2954 0.156385 -0.06305 0.32649 -0.08431 0.493585 -0.061695 0.16709 0.02262 0.32542 0.08834 0.459415 0.190695L7.048 3.567c-0.005 -0.0435 -0.01 -0.082 -0.01 -0.126 0 -0.514 0.44 -0.941 0.9645 -0.941 0.524 0 0.954 0.417 0.9545 0.936 0 0.044 -0.005 0.0825 -0.01 0.1265l2.5225 1.431c0.1096 -0.08033 0.2349 -0.136675 0.36775 -0.16537 0.13285 -0.028695 0.27025 -0.029095 0.40325 -0.00117 0.133 0.02792 0.25865 0.08354 0.36875 0.16323 0.1101 0.07971 0.20215 0.18166 0.27025 0.29931 0.2565 0.451 0.0885 1.0235 -0.3715 1.276 -0.0445 0.019 -0.089 0.0435 -0.1335 0.058v2.809c0.0395 0.015 0.078 0.0325 0.114 0.053Zm0.1735 1.174c0.04885 -0.08065 0.0811 -0.1702 0.0948 -0.2635 0.01375 -0.09325 0.00875 -0.18835 -0.0148 -0.27965 -0.0235 -0.0913 -0.06505 -0.17695 -0.12215 -0.252 -0.0571 -0.075 -0.12865 -0.13785 -0.21035 -0.18485 -0.1347 -0.07765 -0.29055 -0.1105 -0.4451 -0.0939 -0.15455 0.01665 -0.29985 0.0819 -0.4149 0.1864l-1.133 -0.645c0.13555 -0.27395 0.1662 -0.588 0.08605 -0.883 -0.08015 -0.29495 -0.2655 -0.55035 -0.52105 -0.718 -0.03185 -0.10705 -0.07335 -0.211 -0.124 -0.3105l1.7115 -0.951c0.178 0.165 0.4285 0.2325 0.6675 0.18 0.09305 -0.0201 0.18125 -0.0585 0.2594 -0.11295 0.0781 -0.05445 0.14465 -0.1239 0.19575 -0.20425 0.05105 -0.0804 0.08565 -0.1701 0.10175 -0.264 0.01615 -0.09385 0.01345 -0.19 -0.0079 -0.2828 -0.089 -0.388 -0.485 -0.6255 -0.88 -0.5385 -0.0931 0.02005 -0.1813 0.05835 -0.25945 0.11275 -0.07815 0.0544 -0.1447 0.1238 -0.19585 0.20415 -0.0511 0.0803 -0.08575 0.17 -0.10195 0.26385 -0.01615 0.0938 -0.01355 0.18995 0.00775 0.28275l-1.731 0.9655c-0.336 -0.393 -1.4045 -0.655 -1.4045 -0.655V4.0765c0.1069 -0.03073 0.20445 -0.08759 0.2839 -0.165455 0.0794 -0.077865 0.1382 -0.174275 0.1711 -0.280545 0.02575 -0.08469 0.0344 -0.173665 0.0254 -0.26173 -0.009 -0.088065 -0.03545 -0.17346 -0.0778 -0.25119 -0.04235 -0.077735 -0.0998 -0.14625 -0.1689 -0.20155 -0.06915 -0.0553 -0.1486 -0.09627 -0.2337 -0.12053 -0.361 -0.1065 -0.742 0.0875 -0.851 0.442 -0.0257 0.08466 -0.0343 0.173585 -0.02525 0.261595 0.009 0.08801 0.0355 0.17334 0.07785 0.251015 0.04235 0.077675 0.09975 0.14614 0.1688 0.201405 0.0691 0.055265 0.1485 0.096225 0.2336 0.120485v2.183s-0.583 0.189 -0.8105 0.373c-0.2417 0.00555 -0.47875 0.0672 -0.6925 0.18l-1.627525 -0.917c0.027425 -0.11455 0.02549 -0.2342 -0.005625 -0.34785 -0.031115 -0.1136 -0.090405 -0.21755 -0.172375 -0.30215 -0.132535 -0.13975 -0.31478 -0.22165 -0.507275 -0.22805 -0.19249 -0.00635 -0.379745 0.06335 -0.521225 0.19405 -0.07006 0.06355 -0.126665 0.1405 -0.166465 0.22635 -0.0398 0.0858 -0.06199 0.1787 -0.06525 0.27325 -0.003265 0.09455 0.012465 0.1888 0.04625 0.27715 0.03379 0.08835 0.084955 0.169 0.150465 0.23725 0.132625 0.13975 0.31495 0.2217 0.507525 0.22805 0.19258 0.0064 0.379915 -0.06335 0.521475 -0.19405l1.469025 0.8245c-0.2577 0.2506 -0.41645 0.5856 -0.4473 0.9437 -0.03085 0.3581 0.0683 0.71535 0.2793 1.0063l-1.291025 0.7325c-0.08948 -0.08155 -0.197485 -0.14005 -0.31466 -0.17045 -0.11718 -0.0304 -0.24 -0.0318 -0.35784 -0.00405 -0.09305 0.02075 -0.18106 0.05975 -0.25891 0.1148 -0.077855 0.055 -0.144005 0.12495 -0.19461 0.20575 -0.05061 0.0808 -0.084665 0.17085 -0.1002 0.2649 -0.01553 0.09405 -0.012225 0.19025 0.00972 0.28305 0.0945 0.387 0.4905 0.6255 0.885 0.533 0.093 -0.02075 0.180955 -0.05975 0.25877 -0.11475 0.077815 -0.055 0.14394 -0.1249 0.19454 -0.2056 0.050605 -0.08075 0.084675 -0.17075 0.100245 -0.26475 0.015565 -0.094 0.01232 -0.19015 -0.009555 -0.2829L6.084 9.34c0.355 0.2815 0.8185 0.3935 1.266 0.3055 0.138 0.063 0.28 0.1165 0.425 0.16v2.038c-0.0981 0.0304 -0.18915 0.07985 -0.26805 0.1456 -0.07885 0.06575 -0.1439 0.1464 -0.19145 0.2374 -0.045 0.08845 -0.0718 0.185 -0.07895 0.284 -0.0071 0.09895 0.0056 0.19835 0.0374 0.29235 0.03185 0.094 0.0821 0.18065 0.14785 0.25495 0.0658 0.0743 0.14575 0.1347 0.2352 0.1777 0.03 0.015 0.0595 0.029 0.094 0.039 0.005 0 0.01 0.005 0.015 0.005 0.405 0.121 0.836 -0.0975 0.9595 -0.495 0.02955 -0.09495 0.0399 -0.19485 0.0304 -0.29385 -0.00945 -0.099 -0.03855 -0.19515 -0.08555 -0.28275 -0.047 -0.08765 -0.111 -0.16505 -0.18825 -0.2277 -0.0772 -0.06265 -0.16615 -0.1093 -0.2616 -0.1372V9.845s0.371 -0.034 0.544 -0.0875c0.4825 0.19 1.0345 0.0775 1.4 -0.286l1.157 0.665c-0.03555 0.1496 -0.02145 0.3067 0.04015 0.4476 0.0616 0.1409 0.16735 0.2579 0.30135 0.3334 0.1673 0.0953 0.36515 0.1217 0.55165 0.07365 0.18645 -0.04805 0.3469 -0.16735 0.44735 -0.33165ZM3.991975 9.9805c0.11 0.0005 0.211 0.0575 0.267 0.15 0.02524 0.0464 0.038795 0.0982 0.0395 0.151 -0.00092 0.08045 -0.0337 0.15725 -0.091155 0.2136 -0.05745 0.0563 -0.13489 0.08755 -0.215345 0.0869 -0.08054 0.0008 -0.158105 -0.0304 -0.215665 -0.08675s-0.09041 -0.1332 -0.091335 -0.21375c0 -0.1665 0.1375 -0.301 0.307 -0.301ZM8.3245 3.4365c-0.00135 0.080415 -0.0343 0.157065 -0.0918 0.213325 -0.05745 0.056255 -0.1348 0.08758 -0.2152 0.087175 -0.0805 0.000665 -0.1579 -0.03059 -0.21535 -0.086915 -0.05745 -0.056325 -0.09025 -0.13313 -0.09115 -0.213585 0 -0.1665 0.1375 -0.301 0.3065 -0.301 0.17 0 0.307 0.135 0.307 0.301Zm3.739 2.61c-0.08035 -0.0001 -0.1574 -0.0317 -0.2147 -0.08795 -0.0573 -0.0563 -0.09025 -0.13275 -0.0918 -0.21305 0 -0.166 0.1375 -0.301 0.3065 -0.301 0.17 0 0.307 0.135 0.307 0.301 -0.00095 0.08055 -0.0338 0.1574 -0.09135 0.21375 -0.05755 0.05635 -0.13515 0.08755 -0.21565 0.08675v0.0005ZM4.134975 5.4685c0.03476 0.01875 0.06538 0.0443 0.090045 0.07515 0.02466 0.03085 0.042855 0.06635 0.053495 0.1044 0.01064 0.038 0.013505 0.0778 0.00843 0.117 -0.005075 0.03915 -0.017985 0.0769 -0.03797 0.11095 -0.040465 0.0697 -0.106885 0.1206 -0.18474 0.1415 -0.07786 0.0209 -0.160825 0.0101 -0.23076 -0.03 -0.03486 -0.01865 -0.065585 -0.04415 -0.090325 -0.075 -0.02474 -0.03085 -0.042985 -0.06635 -0.05364 -0.1044 -0.01065 -0.0381 -0.013485 -0.07795 -0.008335 -0.1171 0.00515 -0.0392 0.01818 -0.07695 0.0383 -0.111 0.040465 -0.0697 0.106885 -0.1206 0.184745 -0.1415 0.07786 -0.0209 0.16082 -0.0101 0.230755 0.03Zm8.052025 4.57c0.03465 0.01875 0.06525 0.0443 0.08985 0.0751 0.0246 0.0308 0.0428 0.06625 0.0534 0.10425 0.01065 0.03795 0.01355 0.0777 0.0085 0.1168 -0.005 0.0391 -0.01785 0.0768 -0.03775 0.11085 -0.0284 0.0455 -0.06775 0.08315 -0.1145 0.1095 -0.04675 0.0263 -0.0994 0.0404 -0.153 0.041 -0.054 0.0009 -0.10725 -0.0124 -0.15445 -0.03855 -0.0472 -0.02615 -0.0867 -0.0642 -0.11455 -0.11045 -0.0274 -0.0459 -0.0419 -0.0983 -0.0419 -0.15175s0.0145 -0.10585 0.0419 -0.15175c0.02785 -0.04625 0.06735 -0.0843 0.11455 -0.11045 0.0472 -0.02615 0.10045 -0.03945 0.15445 -0.03855 0.05395 0.00175 0.10665 0.01715 0.1535 0.044Zm-4.476 2.5075c0.00045 -0.0038 0.00225 -0.00735 0.005 -0.01 0.01345 -0.0786 0.0573 -0.14875 0.122 -0.1953 0.06475 -0.0466 0.14515 -0.06585 0.224 -0.0537 0.0788 0.01055 0.1502 0.052 0.1985 0.1152 0.04825 0.0632 0.0695 0.14295 0.059 0.2218 -0.01485 0.07285 -0.0545 0.13835 -0.11225 0.1852 -0.0577 0.04685 -0.1299 0.07225 -0.20425 0.0718 -0.04155 -0.0018 -0.0823 -0.012 -0.11975 -0.03 -0.03745 -0.01805 -0.07085 -0.0435 -0.0982 -0.07485 -0.0273 -0.0313 -0.04795 -0.0679 -0.0607 -0.10745 -0.0127 -0.03955 -0.0173 -0.0813 -0.01335 -0.1227Zm1.761 -4.6425c0.14705 0.0452 0.2756 0.1367 0.3665 0.26085 0.0909 0.12415 0.1393 0.2743 0.138 0.42815 0 0.0245 -0.005 0.049 -0.005 0.073 -0.005 0.0195 -0.005 0.039 -0.01 0.058v0.015c-0.01 0.0435 -0.02 0.087 -0.04 0.1305 -0.0549 0.1337 -0.1497 0.2472 -0.2715 0.325 -0.03 0.015 -0.055 0.0295 -0.084 0.044l-0.015 0.005c-0.058 0.0269 -0.1197 0.04495 -0.183 0.0535l-0.025 0.0045c-0.0345 0 -0.064 0.005 -0.0985 0.005 -0.1615 0 -0.318 -0.053 -0.445 -0.1505l-0.134 0.058c-0.041 0.02 -0.084 0.0345 -0.1285 0.044h-0.005c-0.3061 0.0819 -0.63155 0.049 -0.915 -0.0925h-0.005c-0.0295 -0.0145 -0.059 -0.029 -0.084 -0.0435l-0.01 -0.005c-0.0295 -0.019 -0.054 -0.0385 -0.084 -0.058 -0.1199 0.05255 -0.24965 0.07895 -0.3805 0.0775 -0.04 0 -0.0745 0 -0.109 -0.005l-0.02 -0.005 -0.089 -0.014 -0.01 -0.005c-0.03175 -0.0059 -0.063 -0.0141 -0.0935 -0.0245 -0.07975 -0.02645 -0.15615 -0.0622 -0.2275 -0.1065 -0.149 -0.09215 -0.26635 -0.2275 -0.3365 -0.388 0 -0.01 -0.005 -0.015 -0.01 -0.0245 -0.00585 -0.0165 -0.0125 -0.0327 -0.02 -0.0485 -0.0059 -0.0109 -0.01095 -0.0223 -0.015 -0.034 -0.005 -0.0145 -0.0145 -0.029 -0.0145 -0.0435 -0.001 -0.01495 -0.0044 -0.02965 -0.01 -0.0435 -0.005 -0.015 -0.005 -0.02 -0.01 -0.039 -0.005 -0.0195 -0.005 -0.0385 -0.0095 -0.058 0 -0.015 -0.005 -0.0245 -0.005 -0.034 -0.00415 -0.03065 -0.00585 -0.0616 -0.005 -0.0925 -0.0006 -0.03725 0.00105 -0.07445 0.005 -0.1115 0 -0.0145 0.005 -0.024 0.005 -0.034 0.005 -0.029 0.01 -0.053 0.015 -0.0775 0.005 -0.01 0.005 -0.024 0.01 -0.034 0.0059 -0.0265 0.0141 -0.0524 0.0245 -0.0775 0.005 -0.01 0.005 -0.0145 0.01 -0.024 0.0109 -0.03015 0.0241 -0.0594 0.0395 -0.0875l0.005 -0.01c0.08115 -0.14885 0.1993 -0.2743 0.343 -0.36435 0.1437 -0.09 0.3081 -0.14155 0.4775 -0.14965 0.015 -0.005 0.03 -0.005 0.05 -0.005 0.0595 0 0.119 0.005 0.178 0.015 0.025 -0.03 0.0495 -0.054 0.079 -0.083l0.025 -0.024c0.0295 -0.0245 0.054 -0.0485 0.084 -0.068l0.015 -0.01c0.0195 -0.0145 0.054 -0.0385 0.069 -0.0485 0.015 -0.0095 0.0395 -0.029 0.0545 -0.034 0.01735 -0.006 0.034 -0.01405 0.0495 -0.024 0.0295 -0.015 0.079 -0.039 0.1085 -0.0485l0.025 -0.0195c0.19805 -0.07695 0.41255 -0.1019 0.623 -0.0725h0.005c0.04 0.004 0.0795 0.01 0.1185 0.019h0.005c0.04 0.005 0.0745 0.02 0.114 0.0295l0.005 0.005c0.0395 0.014 0.074 0.0285 0.1085 0.0435l0.01 0.005c0.034 0.014 0.067 0.03 0.099 0.048l0.005 0.005c0.0295 0.015 0.064 0.039 0.094 0.058l0.005 0.005c0.0345 0.0195 0.064 0.0435 0.0935 0.068l0.005 0.005c0.16535 0.139 0.293 0.3175 0.371 0.519v0.005c0.01 0.029 0.02 0.063 0.03 0.092 0 0.01 0.005 0.0195 0.005 0.029 0.008 0.025 0.015 0.0515 0.0195 0.0775l0.015 0.1115Z" stroke-width="0.5"></path></svg>